<?xml version="1.0" encoding="utf-8"?>
<!-- Generator: Adobe Illustrator 24.1.0, SVG Export Plug-In . SVG Version: 6.00 Build 0)  -->
<svg version="1.1" id="Calque_1" xmlns="http://www.w3.org/2000/svg" xmlns:xlink="http://www.w3.org/1999/xlink" x="0px" y="0px"
	 viewBox="0 0 20 20" style="enable-background:new 0 0 20 20;" xml:space="preserve">
<path d="M15.7,6.4h-0.9H0.9C0.4,6.4,0,6.8,0,7.3v8.2C0,18,2,20,4.3,20h7c2.4,0,4.3-2,4.3-4.5c2.4,0,4.3-2,4.3-4.5S18,6.4,15.7,6.4z
	 M13.9,15.5c0,1.5-1.2,2.7-2.6,2.7h-7c-1.4,0-2.6-1.2-2.6-2.7V8.2h12.2V15.5z M15.7,13.6V8.2c1.4,0,2.6,1.2,2.6,2.7
	S17.1,13.6,15.7,13.6z"/>
<path d="M4.3,4.5c-0.5,0-0.9-0.4-0.9-0.9V0.9C3.5,0.4,3.9,0,4.3,0s0.9,0.4,0.9,0.9v2.7C5.2,4.1,4.8,4.5,4.3,4.5z"/>
<path d="M7.8,4.5C7.3,4.5,7,4.1,7,3.6V0.9C7,0.4,7.3,0,7.8,0s0.9,0.4,0.9,0.9v2.7C8.7,4.1,8.3,4.5,7.8,4.5z"/>
<path d="M11.3,4.5c-0.5,0-0.9-0.4-0.9-0.9V0.9c0-0.5,0.4-0.9,0.9-0.9s0.9,0.4,0.9,0.9v2.7C12.2,4.1,11.8,4.5,11.3,4.5z"/>
</svg>
