<?xml version="1.0" encoding="utf-8"?>
<!-- Generator: Adobe Illustrator 24.1.0, SVG Export Plug-In . SVG Version: 6.00 Build 0)  -->
<svg version="1.1" id="Calque_1" xmlns="http://www.w3.org/2000/svg" xmlns:xlink="http://www.w3.org/1999/xlink" x="0px" y="0px"
	 viewBox="0 0 20 20" style="enable-background:new 0 0 20 20;" xml:space="preserve">
<path d="M19.6,0.2C19.4,0,19.1,0,18.8,0l-12,2C6.4,2.1,6,2.5,6,3v9.6C5.4,12.2,4.7,12,4,12c-2.2,0-4,1.8-4,4s1.8,4,4,4s4-1.8,4-4
	V3.8l10-1.7v8.4c-0.6-0.3-1.3-0.6-2-0.6c-2.2,0-4,1.8-4,4s1.8,4,4,4s4-1.8,4-4V1C20,0.7,19.9,0.4,19.6,0.2z M4,18c-1.1,0-2-0.9-2-2
	s0.9-2,2-2s2,0.9,2,2S5.1,18,4,18z M16,16c-1.1,0-2-0.9-2-2s0.9-2,2-2s2,0.9,2,2S17.1,16,16,16z"/>
</svg>
