<?xml version="1.0" encoding="utf-8"?>
<!-- Generator: Adobe Illustrator 24.1.0, SVG Export Plug-In . SVG Version: 6.00 Build 0)  -->
<svg version="1.1" id="Calque_1" xmlns="http://www.w3.org/2000/svg" xmlns:xlink="http://www.w3.org/1999/xlink" x="0px" y="0px"
	 viewBox="0 0 20 20" style="enable-background:new 0 0 20 20;" xml:space="preserve">
<g>
	<ellipse cx="7.5" cy="18.4" rx="1.7" ry="1.6"/>
	<ellipse cx="16.7" cy="18.4" rx="1.7" ry="1.6"/>
	<path d="M8,14.8c-1.2,0-2.2-0.9-2.4-2.1L4.2,5.4c0,0,0-0.1,0-0.1L3.5,1.7H0.8C0.4,1.7,0,1.3,0,0.9S0.4,0,0.8,0h3.3
		C4.6,0,4.9,0.3,5,0.7l0.7,3.6h13.5c0.2,0,0.5,0.1,0.6,0.3C20,4.9,20,5.1,20,5.4l-1.3,7.3c-0.2,1.2-1.3,2.1-2.5,2.1L8,14.8
		C8.1,14.8,8,14.8,8,14.8z M6,6.1l1.2,6.3c0.1,0.4,0.4,0.7,0.8,0.7h8.1c0.4,0,0.8-0.3,0.8-0.7l1.1-6.3H6z"/>
</g>
</svg>
